<?xml version="1.0" standalone="no"?>
<!DOCTYPE svg PUBLIC "-//W3C//DTD SVG 20010904//EN"
 "http://www.w3.org/TR/2001/REC-SVG-20010904/DTD/svg10.dtd">
<svg version="1.0" xmlns="http://www.w3.org/2000/svg"
 width="422.000000pt" height="422.000000pt" viewBox="0 0 422.000000 422.000000"
 preserveAspectRatio="xMidYMid meet">
<metadata>
Created by potrace 1.14, written by Peter Selinger 2001-2017
</metadata>
<g transform="translate(0.000000,422.000000) scale(0.100000,-0.100000)"
fill="#000000" stroke="none">
<path d="M924 2799 c-17 -5 -38 -17 -48 -28 -16 -18 -16 -24 13 -132 17 -63
35 -129 40 -147 5 -18 10 -34 11 -37 0 -3 2 -10 4 -17 2 -7 14 -51 26 -98 12
-47 31 -116 41 -155 36 -132 38 -140 39 -147 8 -45 49 -153 62 -162 12 -7 30
-7 65 2 55 15 73 28 73 52 0 18 -92 368 -171 650 -12 41 -22 82 -24 91 -9 47
-30 106 -43 122 -16 18 -40 20 -88 6z"/>
<path d="M770 2659 c-53 -36 -209 -119 -225 -119 -9 0 -57 -21 -190 -85 -178
-85 -233 -148 -222 -253 15 -143 73 -276 135 -307 43 -21 206 -29 307 -15 33
5 84 11 114 15 30 4 63 9 75 11 33 7 254 7 265 0 19 -12 19 11 0 79 -11 39
-22 77 -24 85 -6 29 -55 209 -85 316 -17 60 -32 118 -35 129 -14 65 -45 169
-52 175 -4 4 -33 -10 -63 -31z"/>
<path d="M1116 2582 c-4 -7 10 -63 79 -319 17 -61 33 -103 41 -103 23 0 73 61
85 103 22 83 -2 191 -57 256 -42 50 -132 88 -148 63z"/>
<path d="M3056 2428 c-73 -16 -137 -76 -157 -148 -28 -96 -4 -167 71 -209 67
-37 203 -27 244 18 17 18 16 20 -5 44 -20 24 -23 25 -44 11 -90 -59 -190 -19
-188 76 2 111 121 182 204 121 l31 -23 29 28 c23 22 26 30 17 41 -32 39 -126
58 -202 41z"/>
<path d="M3421 2420 c-53 -20 -101 -64 -125 -113 -23 -49 -24 -133 -2 -175 16
-32 77 -78 106 -80 82 -5 123 -2 162 15 153 68 180 280 44 350 -43 22 -133 24
-185 3z m139 -70 c25 -13 48 -59 44 -85 -11 -70 -18 -86 -50 -114 -34 -30 -52
-36 -104 -31 -55 5 -89 48 -83 108 10 105 109 167 193 122z"/>
<path d="M1617 2358 c-51 -240 -58 -280 -54 -291 3 -8 20 -13 38 -13 32 1 35
4 46 50 16 65 26 116 27 144 1 26 11 29 19 5 26 -79 66 -157 83 -159 21 -3 27
3 108 106 55 70 59 73 52 40 -4 -19 -10 -46 -12 -60 -3 -14 -9 -44 -15 -68
-11 -53 -7 -61 32 -60 38 1 43 10 65 128 11 58 15 80 15 85 0 2 5 19 10 37 5
18 12 54 15 81 l6 47 -35 0 c-33 0 -41 -8 -117 -102 -45 -56 -86 -109 -91
-118 -12 -18 -8 -24 -62 110 -43 104 -43 105 -79 108 l-36 3 -15 -73z"/>
<path d="M2263 2418 c-22 -26 -233 -350 -233 -357 0 -4 16 -8 36 -9 35 -1 44
5 95 67 11 12 32 16 94 16 l80 -1 13 -40 c12 -37 15 -40 52 -40 44 0 46 5 31
66 -5 19 -17 64 -26 100 -9 36 -20 81 -25 100 -5 19 -12 51 -17 70 -8 32 -12
35 -49 38 -25 2 -45 -2 -51 -10z m48 -151 l15 -63 -58 -2 c-52 -2 -57 0 -50
16 10 26 66 112 73 112 3 0 12 -28 20 -63z"/>
<path d="M2559 2423 c-5 -32 -10 -54 -19 -98 -10 -50 -15 -73 -25 -130 -3 -16
-10 -46 -15 -65 -19 -68 -15 -78 32 -76 28 1 42 6 43 16 2 8 8 33 14 56 10 38
12 40 45 36 30 -4 39 -11 65 -57 29 -52 31 -53 73 -50 24 1 44 3 46 4 1 0 -8
18 -21 39 -40 62 -41 75 -6 91 55 24 85 99 64 161 -19 58 -67 77 -191 79 -57
1 -105 -2 -105 -6z m176 -69 c31 -8 43 -34 33 -70 -10 -38 -42 -54 -109 -54
l-50 0 5 33 c3 19 8 41 11 50 3 10 7 24 10 32 4 15 59 20 100 9z"/>
<path d="M3770 2318 c-12 -62 -24 -124 -26 -138 -3 -14 -9 -43 -14 -65 -14
-60 -13 -61 30 -61 l40 0 15 71 c8 38 19 88 23 110 l8 40 38 -90 c28 -68 42
-91 56 -92 13 -1 41 26 86 83 37 46 69 84 71 84 4 0 -2 -33 -21 -127 -8 -37
-12 -71 -10 -75 4 -6 37 -6 75 1 4 0 10 22 15 49 4 26 8 49 9 52 1 7 14 70 20
100 17 89 27 137 31 153 5 14 -1 17 -34 17 -38 0 -42 -4 -118 -101 -108 -138
-103 -133 -107 -128 -2 2 -24 55 -48 116 l-44 113 -36 0 -37 0 -22 -112z"/>
<path d="M68 2194 c-41 -21 -72 -78 -65 -121 9 -53 50 -101 95 -110 33 -6 62
-6 70 2 1 1 -6 22 -16 46 -18 42 -38 117 -45 166 -4 31 -8 33 -39 17z"/>
<path d="M1714 1868 c-12 -13 -56 -69 -98 -125 -76 -102 -77 -103 -48 -103 20
0 36 9 51 29 21 27 26 28 93 27 68 -1 72 -2 78 -26 4 -18 14 -26 33 -28 15 -2
27 0 27 5 0 4 -16 60 -34 123 -30 103 -35 115 -57 118 -16 2 -32 -5 -45 -20z
m56 -125 c0 -8 -17 -12 -50 -10 -27 0 -50 3 -50 4 0 2 17 26 37 53 l37 50 13
-43 c7 -23 13 -47 13 -54z"/>
<path d="M1970 1863 c-52 -26 -80 -66 -80 -116 0 -83 105 -130 209 -94 28 10
36 20 47 57 18 59 18 60 -10 60 -24 0 -36 -16 -36 -51 0 -44 -98 -55 -137 -16
-35 35 -16 105 37 132 37 19 99 19 126 0 18 -12 24 -12 39 -1 24 18 12 33 -35
46 -55 15 -107 9 -160 -17z"/>
<path d="M2251 1853 c-11 -43 -36 -144 -45 -185 l-6 -28 110 0 c67 0 110 4
110 10 0 6 0 13 0 18 0 4 -35 7 -78 7 -76 0 -77 0 -74 25 6 42 20 50 84 49 58
-1 86 10 75 28 -3 5 -35 8 -72 8 l-66 -1 7 31 c3 16 8 32 9 33 2 2 36 4 77 4
67 0 87 7 88 31 0 4 -47 7 -105 7 l-104 0 -10 -37z"/>
<path d="M2535 1878 c-6 -18 -55 -224 -55 -232 0 -3 11 -6 24 -6 26 0 31 10
57 117 l13 52 59 -85 c81 -117 93 -115 129 26 34 135 34 140 3 140 -14 0 -25
-3 -25 -7 0 -5 -9 -39 -20 -78 -10 -38 -16 -73 -14 -77 3 -4 2 -8 -3 -8 -4 0
-33 37 -63 83 -38 56 -63 83 -78 85 -12 2 -24 -3 -27 -10z"/>
<path d="M2915 1871 c-57 -26 -86 -62 -92 -113 -4 -34 0 -49 16 -70 37 -47
128 -61 202 -32 36 15 39 18 25 32 -12 13 -20 13 -41 4 -32 -15 -90 -15 -115
-2 -31 17 -40 43 -29 84 18 65 112 99 167 60 18 -12 26 -13 37 -4 21 17 19 27
-7 41 -37 20 -119 20 -163 0z"/>
<path d="M3130 1879 c0 -6 15 -41 33 -78 19 -38 33 -75 31 -83 -1 -9 -5 -30
-9 -47 -6 -28 -4 -31 19 -31 22 0 27 6 37 43 7 31 31 64 85 122 70 76 73 80
49 83 -21 3 -37 -9 -83 -59 l-58 -62 -30 61 c-23 48 -34 62 -51 62 -13 0 -23
-5 -23 -11z"/>
<path d="M576 1843 c-1 -1 -29 -4 -62 -6 -57 -4 -59 -5 -60 -33 -3 -94 53
-239 120 -312 52 -57 89 -75 156 -78 60 -2 102 15 118 50 33 70 21 99 -50 120
-100 29 -161 120 -167 248 -1 13 -8 17 -27 16 -14 -2 -26 -4 -28 -5z"/>
</g>
</svg>
